<svg id="Layer_1" data-name="Layer 1" xmlns="http://www.w3.org/2000/svg" viewBox="0 0 43 43"><defs><style>.cls-1{fill:#ff7550;}</style></defs><title>EMAIL_icon</title><path class="cls-1" d="M25,46.5A21.5,21.5,0,1,1,46.5,25,21.52,21.52,0,0,1,25,46.5ZM25,5.43A19.57,19.57,0,1,0,44.58,25,19.6,19.6,0,0,0,25,5.43Z" transform="translate(-3.5 -3.5)"/><path class="cls-1" d="M38.88,34.7H11.22V15.3H38.88ZM12.76,33.16H37.34V16.84H12.76Z" transform="translate(-3.5 -3.5)"/><polygon class="cls-1" points="21.82 25.65 21.28 25.65 20.98 25.49 7.92 15.15 8.87 13.94 21.5 23.94 34.14 13.94 35.09 15.15 21.82 25.65"/><rect class="cls-1" x="33.08" y="23.11" width="1.54" height="12.5" transform="translate(-14.43 27.45) rotate(-42.98)"/><rect class="cls-1" x="10" y="28.59" width="12.5" height="1.54" transform="translate(-19.81 17.76) rotate(-47.08)"/></svg>