<svg id="Layer_1" data-name="Layer 1" xmlns="http://www.w3.org/2000/svg" viewBox="0 0 43 43"><defs><style>.cls-1{fill:#ff7550;}</style></defs><title>HAMBURGER_icon</title><path class="cls-1" d="M25,46.5A21.5,21.5,0,1,1,46.5,25,21.52,21.52,0,0,1,25,46.5ZM25,5.43A19.57,19.57,0,1,0,44.58,25,19.6,19.6,0,0,0,25,5.43Z" transform="translate(-3.5 -3.5)"/><path class="cls-1" d="M18,38a1,1,0,0,1-1-1V12.93a1,1,0,0,1,1.93,0V37.08A1,1,0,0,1,18,38Z" transform="translate(-3.5 -3.5)"/><path class="cls-1" d="M24.8,38a1,1,0,0,1-1-1V12.93a1,1,0,0,1,1.93,0V37.08A1,1,0,0,1,24.8,38Z" transform="translate(-3.5 -3.5)"/><path class="cls-1" d="M31.65,38a1,1,0,0,1-1-1V12.93a1,1,0,1,1,1.93,0V37.08A1,1,0,0,1,31.65,38Z" transform="translate(-3.5 -3.5)"/></svg>