<svg id="Layer_1" data-name="Layer 1" xmlns="http://www.w3.org/2000/svg" viewBox="0 0 42.9 42.9"><defs><style>.cls-1{fill:#ff7550;}</style></defs><title>INSTA_icon</title><path class="cls-1" d="M25,46.45A21.45,21.45,0,1,1,46.45,25,21.47,21.47,0,0,1,25,46.45Zm0-41A19.53,19.53,0,1,0,44.53,25,19.55,19.55,0,0,0,25,5.47Z" transform="translate(-3.55 -3.55)"/><g id="jZ5PLx.tif"><path class="cls-1" d="M12,29.48V20.53c.07-.6.12-1.2.2-1.8a7.28,7.28,0,0,1,6-6.43c.77-.15,1.57-.2,2.35-.3h8.95l1,.1a7.92,7.92,0,0,1,5.41,2.35,7.62,7.62,0,0,1,2.07,5.16c.09,2.69.1,5.38.1,8.08a31.93,31.93,0,0,1-.2,3.65,7.23,7.23,0,0,1-5.54,6.3,19.3,19.3,0,0,1-5.05.38c-2.84,0-5.7,0-8.53-.22a7.09,7.09,0,0,1-6.4-6C12.15,31.06,12.09,30.26,12,29.48ZM35.9,25h0c0-1.79.06-3.59,0-5.38a5.38,5.38,0,0,0-5.47-5.47Q25,14,19.59,14.15a5.31,5.31,0,0,0-5.43,5.39c-.11,3.64-.09,7.28,0,10.92a5.19,5.19,0,0,0,3.69,5.07,6.63,6.63,0,0,0,1.89.34c3.51,0,7,.08,10.52,0a5.43,5.43,0,0,0,5.63-5.64C35.95,28.49,35.9,26.75,35.9,25Z" transform="translate(-3.55 -3.55)"/><path class="cls-1" d="M31.47,25A6.46,6.46,0,1,1,25,18.54,6.47,6.47,0,0,1,31.47,25Zm-2,.13a4.42,4.42,0,1,0-4.6,4.29A4.41,4.41,0,0,0,29.43,25.13Z" transform="translate(-3.55 -3.55)"/><path class="cls-1" d="M31.87,16.65a1.5,1.5,0,0,1,1.5,1.52,1.52,1.52,0,0,1-1.55,1.53,1.56,1.56,0,0,1-1.51-1.54A1.52,1.52,0,0,1,31.87,16.65Z" transform="translate(-3.55 -3.55)"/></g></svg>