<svg id="Layer_1" data-name="Layer 1" xmlns="http://www.w3.org/2000/svg" viewBox="0 0 42.9 42.9"><defs><style>.cls-1{fill:#ff7550;}</style></defs><title>PINTEREST_icon</title><path class="cls-1" d="M25,46.45a25.07,25.07,0,0,1-6.7-.91,1,1,0,0,1,.56-1.84,23.07,23.07,0,0,0,6.15.83,19.52,19.52,0,1,0-8.88-2.13,1,1,0,0,1-.88,1.71A21.46,21.46,0,1,1,25,46.45Z" transform="translate(-3.55 -3.55)"/><g id="G4Yzcb"><path class="cls-1" d="M18.3,45.54c-.24-.29-.77-1-.49-1.23A7.55,7.55,0,0,0,20,40.9a29.29,29.29,0,0,0,1.63-5.52c.08-.35.15-.71.22-1.08l.29-1.46.8.43.29.16.19.13,1.2.81a5.56,5.56,0,0,0,3.18,1,8.28,8.28,0,0,0,6.6-2.89,13.2,13.2,0,0,0,3.15-7c.07-.41.11-.81.16-1.22l.06-.53,0-2c0-.34-.08-.69-.12-1a9.5,9.5,0,0,0-5-7.29,14,14,0,0,0-6.14-1.75l-.28,0H24.42l-.38,0c-.33,0-.66.07-1,.12A13.05,13.05,0,0,0,15,16.26a10.87,10.87,0,0,0-2.59,5.57c0,.25-.07.5-.1.75l0,.31v1.74a.66.66,0,0,1,.05.24,8.54,8.54,0,0,0,.48,2.26,4.7,4.7,0,0,0,3.3,3,2.14,2.14,0,0,0,.14-1.88,8,8,0,0,0-.54-1,5.82,5.82,0,0,1-.84-2.35,9.46,9.46,0,0,1,1.34-6.12,10.73,10.73,0,0,1,4.15-3.93,10.09,10.09,0,0,1,8.15-1A7.63,7.63,0,0,1,34,19.74a14.22,14.22,0,0,1,0,6.07,11.55,11.55,0,0,1-2.36,5.28,5.34,5.34,0,0,1-5.89,2,3.07,3.07,0,0,1-2.32-2.7,5.79,5.79,0,0,1,.18-2.22c.23-.85.48-1.7.73-2.54l.52-1.8a8.88,8.88,0,0,0,.44-2.46A1.85,1.85,0,0,0,24.87,20a2.36,2.36,0,0,0-3.13-.24,4.57,4.57,0,0,0-1.54,2.53,6.14,6.14,0,0,0,.31,4.54,1.25,1.25,0,0,1,.07.76c-.14.64-.29,1.29-.45,1.94-.2.84-.41,1.68-.62,2.52-.45,1.78-.89,3.56-1.28,5.35s-1.38,4.29-2.08,6.38c-.12.36-.91.33-.91.33a11.26,11.26,0,0,0,1.44.81C17.76,45.35,18.3,45.54,18.3,45.54Zm-2.39-15,0,0Zm.52-.26h0Z" transform="translate(-3.55 -3.55)"/></g></svg>